<svg viewBox="0 0 468 240" fill="none" xmlns="http://www.w3.org/2000/svg">
<ellipse opacity="0.6" cx="242" cy="120" rx="120" ry="45" transform="rotate(90 242 120)" fill="#00D0AD"/>
<ellipse opacity="0.3" cx="157" cy="120" rx="75" ry="28" transform="rotate(90 157 120)" fill="#00D0AD"/>
<ellipse opacity="0.3" cx="327" cy="120" rx="75" ry="28" transform="rotate(90 327 120)" fill="#00D0AD"/>
<ellipse opacity="0.15" cx="399" cy="120" rx="38" ry="14" transform="rotate(90 399 120)" fill="#00D0AD"/>
<ellipse opacity="0.15" cx="86" cy="120" rx="38" ry="14" transform="rotate(90 86 120)" fill="#00D0AD"/>
<path d="M6 146.5L14.5 138C45.428 107.072 95.5721 107.072 126.5 138L131 142.5C159.443 170.943 205.557 170.943 234 142.5L267.25 109.25C277.329 99.1708 293.671 99.1708 303.75 109.25V109.25C313.829 119.329 330.171 119.329 340.25 109.25V109.25C350.329 99.1708 366.671 99.1708 376.75 109.25L389.75 122.25C407.009 139.509 434.991 139.509 452.25 122.25L463 111.5" stroke="#005EEB" stroke-width="3"/>
<circle cx="286" cy="101" r="8" fill="white"/>
<circle cx="286" cy="101" r="5" fill="#00D0AD"/>
<circle cx="179" cy="164" r="6" fill="white"/>
<circle cx="179" cy="164" r="3" fill="#00D0AD"/>
<circle cx="72" cy="114" r="6" fill="white"/>
<circle cx="72" cy="114" r="3" fill="#00D0AD"/>
<circle cx="6" cy="146" r="6" fill="white"/>
<circle cx="6" cy="146" r="3" fill="#00D0AD"/>
<circle cx="462" cy="112" r="6" fill="white"/>
<circle cx="462" cy="112" r="3" fill="#00D0AD"/>
<circle cx="385" cy="118" r="6" fill="white"/>
<circle cx="385" cy="118" r="3" fill="#00D0AD"/>
</svg>
