<svg width="50" height="50" viewBox="0 0 50 50" fill="none" xmlns="http://www.w3.org/2000/svg">
<circle cx="25" cy="25" r="25" fill="#005EEB"/>
<path d="M25 11C27.7216 11 30.2314 11.6642 32.5294 12.9931C34.8274 14.322 36.6472 16.1256 37.9882 18.4026C39.3292 20.6796 40 23.1667 40 25.8633C40 29.1018 39.046 32.0145 37.1386 34.6009C35.2306 37.1879 32.767 38.9782 29.7466 39.9711C29.3944 40.0359 29.1346 39.9911 28.9648 39.8361C28.883 39.7639 28.818 39.6745 28.7741 39.5742C28.7303 39.4739 28.7087 39.3651 28.711 39.2555L28.7206 37.7752C28.7272 36.8265 28.7302 35.9589 28.7302 35.1718C28.7302 33.9204 28.3918 33.0044 27.715 32.4238C28.4572 32.3463 29.1244 32.23 29.7166 32.0757C30.3094 31.9207 30.9214 31.6688 31.5526 31.3207C32.1844 30.9726 32.7118 30.5433 33.1348 30.0335C33.5578 29.5244 33.9028 28.8469 34.1698 28.0017C34.4368 27.1565 34.5706 26.1854 34.5706 25.0896C34.5706 23.5536 34.0558 22.2247 33.0274 21.1022C33.5092 19.9277 33.457 18.6121 32.8714 17.1548C32.5066 17.038 31.9792 17.1094 31.2892 17.3667C30.5992 17.6252 29.9998 17.9092 29.4922 18.2186L28.75 18.6829C27.528 18.3462 26.2667 18.1772 25 18.1804C23.7333 18.1772 22.472 18.3462 21.25 18.6829C20.9783 18.5009 20.7016 18.3267 20.4202 18.1604C20.0746 17.9546 19.531 17.7064 18.7888 17.4158C18.0466 17.1251 17.4934 17.038 17.1292 17.1542C16.543 18.6121 16.4908 19.9283 16.9732 21.1022C15.9442 22.2247 15.4294 23.5542 15.4294 25.089C15.4294 26.1854 15.5632 27.1535 15.8302 27.992C16.0972 28.8305 16.4386 29.508 16.8556 30.0239C17.272 30.5403 17.7964 30.9726 18.4276 31.3207C19.0594 31.6688 19.6714 31.9207 20.2636 32.0757C20.8564 32.23 21.5236 32.3463 22.2658 32.4238C21.7576 32.8881 21.439 33.5529 21.3088 34.4175C21.0282 34.5488 20.7331 34.6461 20.4298 34.7075C20.1172 34.7722 19.7458 34.8043 19.3162 34.8043C18.8866 34.8043 18.46 34.6651 18.037 34.3884C17.614 34.1105 17.2528 33.7073 16.9534 33.1788C16.7156 32.7763 16.3917 32.4325 16.0054 32.1725C15.6214 31.914 15.2992 31.7596 15.0394 31.7076L14.6482 31.6494C14.3752 31.6494 14.1862 31.6785 14.0818 31.7366C13.978 31.7947 13.9456 31.8692 13.9846 31.9594C14.0236 32.0502 14.0818 32.1398 14.1604 32.23C14.2384 32.3209 14.3224 32.3977 14.4142 32.4625L14.551 32.5594C14.8372 32.6884 15.121 32.9336 15.4006 33.295C15.6802 33.6558 15.8854 33.9852 16.0156 34.2818L16.2112 34.7268C16.3804 35.2172 16.6672 35.6138 17.0704 35.9171C17.4742 36.2198 17.9104 36.4136 18.3784 36.4977C18.8476 36.5813 19.3 36.6267 19.7362 36.6333C20.1724 36.6394 20.5342 36.617 20.8204 36.5655L21.2698 36.488C21.2698 36.9784 21.2728 37.5494 21.2794 38.2008L21.289 39.2555C21.289 39.4879 21.2044 39.6811 21.0352 39.8361C20.866 39.9911 20.6056 40.0359 20.254 39.9717C17.233 38.9782 14.7688 37.1879 12.8614 34.6015C10.9534 32.0133 10 29.1012 10 25.8633C10 23.1667 10.6708 20.6796 12.0118 18.4026C13.3528 16.1256 15.1726 14.322 17.4706 12.9931C19.7686 11.6642 22.2784 11 25 11ZM15.6838 32.3463C15.7228 32.2561 15.6772 32.1786 15.547 32.1144C15.4168 32.0757 15.3322 32.0884 15.2932 32.1532C15.2542 32.2434 15.2992 32.3209 15.4294 32.385C15.547 32.4625 15.6316 32.4498 15.6838 32.3463ZM16.2892 33.0044C16.3804 32.9402 16.3672 32.8367 16.2502 32.695C16.12 32.5788 16.0156 32.5594 15.9376 32.6369C15.8464 32.7011 15.8596 32.8046 15.9766 32.9463C16.1068 33.0752 16.2106 33.0946 16.2886 33.0044H16.2892ZM16.8748 33.8756C16.9924 33.7848 16.9924 33.6625 16.8748 33.5075C16.771 33.3398 16.66 33.3017 16.543 33.3913C16.426 33.456 16.426 33.5723 16.543 33.74C16.66 33.9077 16.771 33.9525 16.8748 33.8756ZM17.6956 34.6881C17.7994 34.5852 17.7736 34.4623 17.6176 34.3206C17.461 34.1656 17.3308 34.1462 17.2264 34.2625C17.1094 34.3654 17.1352 34.4883 17.3044 34.63C17.4604 34.785 17.5912 34.8043 17.6956 34.6881ZM18.8086 35.1724C18.8476 35.0302 18.763 34.9266 18.5548 34.8625C18.3592 34.811 18.2356 34.8564 18.1834 34.9981C18.1318 35.1397 18.2164 35.2366 18.4378 35.2881C18.6328 35.3656 18.7564 35.3268 18.8086 35.1718V35.1724ZM20.0386 35.2693C20.0386 35.101 19.9282 35.0302 19.7068 35.0556C19.4986 35.0556 19.3948 35.127 19.3948 35.2687C19.3948 35.4364 19.5052 35.5072 19.7266 35.4818C19.9348 35.4818 20.0386 35.4104 20.0386 35.2687V35.2693ZM21.172 35.0756C21.1456 34.9333 21.0286 34.8758 20.8204 34.9012C20.6122 34.94 20.5204 35.0362 20.5468 35.1918C20.5732 35.3462 20.6902 35.3977 20.8984 35.3462C21.1066 35.2947 21.1984 35.2045 21.172 35.075V35.0756Z" fill="white"/>
</svg>
