<svg viewBox="0 0 74 50" fill="none" xmlns="http://www.w3.org/2000/svg">
<path fill-rule="evenodd" clip-rule="evenodd" d="M66.4661 17.4233C64.9517 16.801 63.1575 16.4897 61.0835 16.4897C58.4827 16.4897 56.3758 16.9646 54.7627 17.9146C53.1496 18.8645 51.8986 20.1257 51.0097 21.698C50.1208 23.2705 49.5118 25.072 49.1826 27.103C48.8863 29.1338 48.7382 31.2468 48.7382 33.4414C48.7382 36.4551 48.9851 39.0264 49.4789 41.1558C50.0056 43.2522 50.7793 44.9556 51.7998 46.2656C52.8533 47.5759 54.1537 48.5259 55.7009 49.1155C57.2482 49.7053 59.0424 50 61.0835 50C63.1246 50 64.9188 49.7053 66.4661 49.1155C68.0133 48.5259 69.2973 47.5759 70.3178 46.2656C71.3383 44.9226 72.0955 43.2029 72.5893 41.1064C73.1161 38.9773 73.3794 36.406 73.3794 33.3923C73.3794 30.3787 73.1161 27.8071 72.5893 25.678C72.0955 23.5161 71.3383 21.7637 70.3178 20.4207C69.2973 19.0447 68.0133 18.0457 66.4661 17.4233ZM63.9192 20.7542C63.1181 20.2627 62.169 20.0171 61.0718 20.0171C59.6961 20.0171 58.5815 20.3921 57.7282 21.1421C56.8749 21.8921 56.2131 22.8877 55.7429 24.1289C55.2727 25.3704 54.9505 26.7925 54.7764 28.396C54.6197 29.9993 54.5413 31.6672 54.5413 33.3999C54.5413 33.8538 54.5461 34.2947 54.5556 34.7231L67.4471 29.7175C67.3783 28.8333 67.2821 28.0176 67.1583 27.271C66.8971 25.5642 66.4965 24.1807 65.9567 23.1204C65.4168 22.0342 64.7376 21.2454 63.9192 20.7542ZM67.5762 33.3042L54.7737 38.2754C54.8199 38.6987 54.8731 39.1038 54.9331 39.4902C55.2118 41.1453 55.621 42.49 56.1609 43.5244C56.7182 44.5588 57.406 45.3088 58.2245 45.7744C59.043 46.2397 59.9921 46.4727 61.0718 46.4727C62.1516 46.4727 63.1007 46.2397 63.9192 45.7744C64.7376 45.3088 65.4168 44.5588 65.9567 43.5244C66.4965 42.4641 66.8971 41.1064 67.1583 39.4514C67.4369 37.7705 67.5763 35.7405 67.5763 33.3611C67.5763 33.342 67.5762 33.323 67.5762 33.3042Z" fill="#34C88A"/>
<path d="M6.75 2.2937L6.75 17.1569C6.75 17.6644 7.15135 18.0752 7.64499 18.073L14.2242 18.0429C14.9083 18.0397 15.334 17.2779 14.9919 16.6687L14.1392 15.1501C13.7701 14.4929 12.9527 14.2677 12.3134 14.6472L12.2228 14.7009C11.591 15.076 10.7831 14.8534 10.4183 14.2038C10.2292 13.8671 10.1896 13.4631 10.3094 13.0944L11.6777 8.88299C11.8916 8.2244 12.5498 7.83341 13.2116 7.97177L17.4472 8.8573C17.818 8.93482 18.1386 9.17211 18.3278 9.50901C18.6925 10.1585 18.4761 10.9889 17.8444 11.3639L17.7535 11.4179C17.1143 11.7973 16.8952 12.6377 17.2643 13.295L18.1043 14.7909C18.4464 15.4001 19.3009 15.402 19.6456 14.7944L22.9347 8.9968C23.1835 8.55838 23.0381 7.99561 22.6106 7.74184L10.0913 0.310256C8.60629 -0.571274 6.75001 0.530639 6.75 2.2937Z" fill="#34C88A"/>
<path d="M39.0723 17.5237L26.5531 10.0921C26.1255 9.83836 25.5788 9.99031 25.3339 10.431L22.0697 16.3043C21.7303 16.915 22.1592 17.6749 22.8433 17.6749H24.9943C25.4864 17.6749 25.8853 17.2648 25.8853 16.7588V15.7511C25.8853 15.2451 26.2842 14.835 26.7763 14.835L27.3998 14.835C27.6549 14.835 27.8978 14.9474 28.0669 15.1437L31.3197 18.9202C31.6182 19.2668 31.6184 19.7878 31.3201 20.1346L28.0669 23.916C27.8978 24.1126 27.6548 24.2251 27.3995 24.2251H26.7763C26.2842 24.2251 25.8853 23.815 25.8853 23.309V22.3013C25.8853 21.7953 25.4864 21.3852 24.9943 21.3852H22.8688C22.1846 21.3852 21.7557 22.1451 22.0951 22.7558L25.3339 28.5833C25.5788 29.024 26.1255 29.176 26.5531 28.9222L39.0723 21.4906C40.5574 20.6091 40.5574 18.4052 39.0723 17.5237Z" fill="#34C88A"/>
<path d="M10.0851 38.676L22.6044 31.2444C23.0319 30.9906 23.1772 30.4278 22.9285 29.9894L19.6135 24.1462C19.2688 23.5386 18.4143 23.5406 18.0722 24.1498L16.9968 26.065C16.7507 26.5032 16.8967 27.0635 17.3229 27.3164L18.1717 27.8203C18.5979 28.0733 18.7439 28.6336 18.4978 29.0717L18.1861 29.627C18.0585 29.8541 17.8424 30.0141 17.5925 30.0665L12.7851 31.0747C12.344 31.1672 11.905 30.9068 11.7621 30.4678L10.2036 25.6804C10.1226 25.4316 10.1492 25.1589 10.2769 24.9316L10.5885 24.3767C10.8346 23.9385 11.3795 23.7884 11.8057 24.0413L12.6545 24.5452C13.0806 24.7982 13.6256 24.6481 13.8716 24.2099L14.9344 22.3173C15.2764 21.7081 14.8508 20.9463 14.1667 20.9431L7.63878 20.9133C7.14514 20.911 6.7438 21.3218 6.7438 21.8294L6.74379 36.6925C6.74379 36.6925 6.74379 36.6925 6.74379 36.6925C6.74379 38.4556 8.60008 39.5575 10.0851 38.676Z" fill="#163F59"/>
</svg>
