<svg viewBox="0 0 62 71" fill="none" xmlns="http://www.w3.org/2000/svg">
<path d="M0.375259 4.14703L0.375263 31.0197C0.375263 31.9374 1.11108 32.6802 2.0161 32.6761L14.0783 32.6216C15.3326 32.6159 16.1129 31.2385 15.4857 30.1371L13.9224 27.3916C13.2457 26.2032 11.7471 25.7961 10.5751 26.4822L10.409 26.5794C9.25063 27.2575 7.76942 26.8551 7.10063 25.6806C6.75396 25.0717 6.68126 24.3415 6.90094 23.6747L9.4095 16.0605C9.8018 14.8698 11.0085 14.1629 12.2219 14.413L19.9873 16.0141C20.667 16.1542 21.2549 16.5832 21.6017 17.1924C22.2703 18.3666 21.8736 19.8681 20.7155 20.546L20.5488 20.6436C19.3768 21.3296 18.9753 22.8491 19.6519 24.0375L21.192 26.742C21.8191 27.8434 23.3858 27.847 24.0177 26.7484L30.0479 16.2663C30.5039 15.4736 30.2374 14.4561 29.4536 13.9973L6.50114 0.560946C3.77853 -1.03287 0.375269 0.959399 0.375259 4.14703Z" fill="#34C88A"/>
<path d="M59.6342 31.683L36.6817 18.2466C35.8979 17.7878 34.8956 18.0626 34.4465 18.8593L28.462 29.4783C27.8397 30.5825 28.626 31.9564 29.8803 31.9564H33.8238C34.726 31.9564 35.4574 31.2148 35.4574 30.3001V28.4781C35.4574 27.5633 36.1887 26.8218 37.0909 26.8218L38.2342 26.8218C38.7018 26.8218 39.147 27.025 39.4571 27.38L45.4208 34.2079C45.9681 34.8345 45.9683 35.7766 45.4214 36.4035L39.4572 43.2403C39.1471 43.5957 38.7016 43.7992 38.2336 43.7992H37.0909C36.1887 43.7992 35.4574 43.0577 35.4574 42.1429V40.3209C35.4574 39.4062 34.726 38.6646 33.8238 38.6646H29.927C28.6727 38.6646 27.8863 40.0385 28.5086 41.1427L34.4465 51.6789C34.8956 52.4756 35.8979 52.7504 36.6817 52.2915L59.6342 38.8552C62.3568 37.2614 62.3568 33.2768 59.6342 31.683Z" fill="#34C88A"/>
<path d="M6.48977 69.9265L29.4423 56.4901C30.2261 56.0313 30.4926 55.0138 30.0366 54.2212L23.959 43.6566C23.327 42.5581 21.7603 42.5616 21.1332 43.663L19.1614 47.1258C18.7103 47.918 18.978 48.931 19.7594 49.3884L21.3155 50.2994C22.0969 50.7568 22.3646 51.7698 21.9135 52.562L21.3419 53.5658C21.108 53.9765 20.7118 54.2658 20.2536 54.3606L11.4399 56.1833C10.6311 56.3506 9.82632 55.8798 9.56431 55.0861L6.70699 46.4305C6.55844 45.9805 6.60737 45.4875 6.84137 45.0766L7.41269 44.0732C7.86378 43.281 8.86286 43.0096 9.64418 43.467L11.2004 44.378C11.9817 44.8353 12.9808 44.5639 13.4319 43.7717L15.3803 40.3499C16.0074 39.2485 15.2271 37.8711 13.9728 37.8654L2.00474 37.8114C1.09972 37.8073 0.363902 38.55 0.363902 39.4677L0.363897 66.3404C0.363897 66.3404 0.363897 66.3404 0.363897 66.3404C0.363897 69.528 3.76716 71.5203 6.48977 69.9265Z" fill="#163F59"/>
</svg>
