<svg viewBox="0 0 50 50" fill="none" xmlns="http://www.w3.org/2000/svg">
<circle cx="25" cy="25" r="25" fill="#B9C8D6"/>
<path fill-rule="evenodd" clip-rule="evenodd" d="M30.8082 34.6857C31.6301 35.7714 32.6164 37 32.6164 37C38.6712 36.7999 41 32.6571 41 32.6571C41 23.4573 37.0548 16.0002 37.0548 16.0002C33.1096 12.9145 29.3562 13.0002 29.3562 13.0002L28.9726 13.4574C33.6301 14.9431 35.7945 17.0859 35.7945 17.0859C32.9452 15.4574 30.1507 14.6573 27.5479 14.3431C25.5753 14.1145 23.6849 14.1716 22.0137 14.4003C21.8702 14.4003 21.7476 14.422 21.6094 14.4465L21.5479 14.4574C20.589 14.5431 18.2603 14.9145 15.3288 16.2573C14.3151 16.743 13.7123 17.0859 13.7123 17.0859C13.7123 17.0859 15.9863 14.8287 20.9178 13.3431L20.6438 13.0002C20.6438 13.0002 16.8904 12.9145 12.9452 16.0002C12.9452 16.0002 9 23.4573 9 32.6571C9 32.6571 11.3014 36.7999 17.3562 37C17.3562 37 18.3699 35.7142 19.1918 34.6285C15.7123 33.5428 14.3973 31.2572 14.3973 31.2572C14.6456 31.4314 14.9016 31.5935 15.1644 31.7429C15.1826 31.7635 15.2028 31.782 15.2247 31.798C15.2403 31.8094 15.2568 31.8197 15.274 31.8286C15.3151 31.8572 15.3562 31.8787 15.3973 31.9C15.4384 31.9214 15.4795 31.9429 15.5205 31.9714C16.1651 32.3426 16.8333 32.6672 17.5205 32.9429C18.8243 33.4795 20.1724 33.8907 21.5479 34.1714C23.6027 34.5714 26.0137 34.7142 28.6438 34.1999C29.9315 33.9714 31.2466 33.5714 32.6164 32.9714C33.7243 32.5354 34.7813 31.97 35.7671 31.2858C35.7671 31.2858 34.3973 33.6285 30.8082 34.6857ZM19.5084 27.7964C19.5084 26.5301 20.4213 25.4923 21.5775 25.4923C22.7338 25.4923 23.6669 26.5301 23.6466 27.7964C23.6466 29.0626 22.7338 30.1006 21.5775 30.1006C20.4415 30.1006 19.5084 29.0626 19.5084 27.7964ZM26.9126 27.7964C26.9126 26.5301 27.8254 25.4923 28.9817 25.4923C30.1379 25.4923 31.0508 26.5301 31.0508 27.7964C31.0508 29.0626 30.1379 30.1006 28.9817 30.1006C27.8457 30.1006 26.9126 29.0626 26.9126 27.7964Z" fill="white"/>
</svg>
