<svg viewBox="0 0 50 50" fill="none" xmlns="http://www.w3.org/2000/svg">
<circle cx="25" cy="25" r="25" fill="#B9C8D6"/>
<path d="M25 9.9375C27.7691 9.9375 30.3228 10.6107 32.6609 11.9576C34.9991 13.3046 36.8507 15.1326 38.2151 17.4406C39.5795 19.7485 40.2621 22.2694 40.2621 25.0026C40.2621 28.285 39.2914 31.2372 37.3507 33.8587C35.4093 36.4808 32.9027 38.2954 29.8295 39.3018C29.4712 39.3674 29.2068 39.322 29.0341 39.1649C28.9509 39.0917 28.8847 39.0011 28.8401 38.8995C28.7954 38.7978 28.7735 38.6875 28.7758 38.5764L28.7856 37.0761C28.7923 36.1145 28.7954 35.2351 28.7954 34.4374C28.7954 33.169 28.4511 32.2405 27.7624 31.652C28.5176 31.5735 29.1965 31.4557 29.799 31.2992C30.4022 31.1421 31.0249 30.8868 31.6671 30.534C32.3099 30.1811 32.8465 29.7461 33.2769 29.2294C33.7073 28.7133 34.0583 28.0266 34.33 27.17C34.6017 26.3133 34.7378 25.329 34.7378 24.2183C34.7378 22.6615 34.214 21.3145 33.1676 20.1768C33.6579 18.9864 33.6047 17.6529 33.0089 16.1758C32.6377 16.0574 32.1011 16.1298 31.3991 16.3906C30.697 16.6526 30.0871 16.9405 29.5707 17.254L28.8155 17.7247C27.5722 17.3834 26.2888 17.2121 25 17.2154C23.7112 17.2121 22.4278 17.3834 21.1845 17.7247C20.9081 17.5402 20.6265 17.3636 20.3402 17.1951C19.9886 16.9865 19.4355 16.7349 18.6803 16.4403C17.9251 16.1458 17.3623 16.0574 16.9917 16.1752C16.3953 17.6529 16.3421 18.987 16.833 20.1768C15.786 21.3145 15.2622 22.6621 15.2622 24.2177C15.2622 25.329 15.3983 26.3102 15.67 27.1601C15.9417 28.01 16.289 28.6967 16.7133 29.2195C17.137 29.743 17.6705 30.1811 18.3128 30.534C18.9556 30.8868 19.5783 31.1421 20.1809 31.2992C20.784 31.4557 21.4629 31.5735 22.218 31.652C21.701 32.1227 21.3768 32.7965 21.2443 33.6728C20.9588 33.8059 20.6586 33.9045 20.35 33.9667C20.0319 34.0324 19.654 34.0649 19.2169 34.0649C18.7798 34.0649 18.3457 33.9238 17.9154 33.6433C17.485 33.3617 17.1175 32.953 16.8128 32.4173C16.5709 32.0093 16.2413 31.6609 15.8483 31.3974C15.4576 31.1354 15.1297 30.9789 14.8654 30.9261L14.4674 30.8672C14.1896 30.8672 13.9973 30.8966 13.8911 30.9556C13.7854 31.0145 13.7525 31.0899 13.7922 31.1814C13.8318 31.2734 13.8911 31.3642 13.971 31.4557C14.0504 31.5477 14.1359 31.6257 14.2293 31.6913L14.3685 31.7895C14.6597 31.9202 14.9484 32.1687 15.2329 32.5351C15.5174 32.9008 15.7262 33.2346 15.8586 33.5353L16.0577 33.9864C16.2298 34.4834 16.5216 34.8854 16.9319 35.1928C17.3427 35.4996 17.7865 35.696 18.2627 35.7813C18.7401 35.866 19.2004 35.912 19.6442 35.9187C20.0881 35.9249 20.4562 35.9022 20.7474 35.85L21.2046 35.7715C21.2046 36.2685 21.2077 36.8472 21.2144 37.5075L21.2242 38.5764C21.2242 38.8121 21.1381 39.0078 20.9659 39.1649C20.7938 39.322 20.5288 39.3674 20.1711 39.3024C17.0973 38.2954 14.5901 36.4808 12.6493 33.8593C10.708 31.236 9.73794 28.2843 9.73794 25.0026C9.73794 22.2694 10.4205 19.7485 11.7849 17.4406C13.1493 15.1326 15.0009 13.3046 17.3391 11.9576C19.6772 10.6107 22.2309 9.9375 25 9.9375ZM15.521 31.5735C15.5607 31.4821 15.5143 31.4035 15.3819 31.3385C15.2494 31.2992 15.1633 31.3121 15.1236 31.3777C15.0839 31.4692 15.1297 31.5477 15.2622 31.6128C15.3819 31.6913 15.4679 31.6784 15.521 31.5735ZM16.137 32.2405C16.2298 32.1755 16.2164 32.0706 16.0973 31.927C15.9649 31.8091 15.8586 31.7895 15.7793 31.868C15.6865 31.9331 15.6999 32.038 15.819 32.1816C15.9514 32.3123 16.057 32.332 16.1364 32.2405H16.137ZM16.7328 33.1236C16.8525 33.0315 16.8525 32.9076 16.7328 32.7505C16.6272 32.5805 16.5143 32.5418 16.3953 32.6327C16.2762 32.6983 16.2762 32.8161 16.3953 32.9861C16.5143 33.1561 16.6272 33.2015 16.7328 33.1236ZM17.568 33.9471C17.6736 33.8428 17.6474 33.7182 17.4886 33.5746C17.3293 33.4175 17.1968 33.3979 17.0906 33.5157C16.9715 33.62 16.9978 33.7446 17.17 33.8882C17.3287 34.0453 17.4618 34.0649 17.568 33.9471ZM18.7004 34.438C18.7401 34.2938 18.654 34.1889 18.4422 34.1238C18.2432 34.0717 18.1174 34.1177 18.0643 34.2613C18.0118 34.4049 18.0979 34.5031 18.3232 34.5552C18.5216 34.6338 18.6473 34.5945 18.7004 34.4374V34.438ZM19.9519 34.5362C19.9519 34.3656 19.8396 34.2938 19.6143 34.3196C19.4025 34.3196 19.2969 34.392 19.2969 34.5356C19.2969 34.7056 19.4092 34.7774 19.6345 34.7516C19.8463 34.7516 19.9519 34.6792 19.9519 34.5356V34.5362ZM21.1051 34.3398C21.0783 34.1956 20.9592 34.1373 20.7474 34.1631C20.5355 34.2024 20.4421 34.2999 20.469 34.4576C20.4959 34.6141 20.6149 34.6663 20.8267 34.6141C21.0386 34.562 21.132 34.4705 21.1051 34.3392V34.3398Z" fill="white"/>
</svg>
