<svg viewBox="0 0 50 50" fill="none" xmlns="http://www.w3.org/2000/svg">
<circle cx="25" cy="25" r="25" fill="#B9C8D6"/>
<path d="M10.4594 25.0274L16.4486 27.299L18.7714 34.8708C18.9188 35.3551 19.5082 35.5312 19.8895 35.2142L23.2265 32.4496C23.5732 32.159 24.0759 32.1414 24.4399 32.4144L30.4638 36.8606C30.8798 37.1688 31.4692 36.9399 31.5732 36.4292L35.9849 14.867C36.0976 14.3123 35.5602 13.8457 35.0401 14.0482L10.4507 23.6891C9.84401 23.9268 9.85268 24.7985 10.4594 25.0274ZM18.3987 26.0928L30.1084 18.7674C30.3164 18.6353 30.5331 18.9259 30.3511 19.0932L20.6869 28.2234C20.3489 28.5404 20.1322 28.9718 20.0629 29.4385L19.7335 31.9125C19.6902 32.2471 19.2308 32.2735 19.1441 31.9565L17.8787 27.4398C17.74 26.9292 17.948 26.3745 18.3987 26.0928Z" fill="white"/>
</svg>
