<svg viewBox="0 0 50 50" fill="none" xmlns="http://www.w3.org/2000/svg">
<circle cx="25" cy="25" r="25" fill="#B9C8D6"/>
<path fill-rule="evenodd" clip-rule="evenodd" d="M38 18.3675C37.0802 18.7691 36.0917 19.0405 35.0541 19.1626C36.113 18.5377 36.9264 17.5483 37.3094 16.3692C36.3182 16.9479 35.2206 17.368 34.0522 17.5944C33.1167 16.6131 31.7836 16 30.3084 16C27.4759 16 25.1794 18.2606 25.1794 21.0489C25.1794 21.4446 25.2247 21.83 25.3122 22.1996C21.0495 21.989 17.2702 19.9789 14.7405 16.9241C14.2989 17.6699 14.0459 18.5371 14.0459 19.4625C14.0459 21.2142 14.9515 22.7596 16.3278 23.665C15.4869 23.6388 14.6961 23.4116 14.0046 23.0335C14.0041 23.0546 14.0041 23.0757 14.0041 23.097C14.0041 25.5433 15.7722 27.5838 18.1185 28.0479C17.6881 28.1632 17.235 28.225 16.7672 28.225C16.4367 28.225 16.1154 28.1933 15.8021 28.1345C16.4549 30.1402 18.349 31.6 20.5935 31.6406C18.8381 32.9948 16.6266 33.8022 14.2234 33.8022C13.8095 33.8022 13.4012 33.7781 13 33.7315C15.2698 35.1641 17.9658 36 20.8623 36C30.2965 36 35.4556 28.3065 35.4556 21.6344C35.4556 21.4155 35.4506 21.1977 35.4407 20.9812C36.4429 20.2693 37.3124 19.38 38 18.3675Z" fill="white"/>
</svg>
